<svg width="316" height="339" viewBox="0 0 316 339" fill="none" xmlns="http://www.w3.org/2000/svg">
<rect y="81.1113" width="163.148" height="163.148" rx="10" transform="rotate(-15.1729 0 81.1113)" fill="#D9D9D9"/>
<rect x="133.131" width="186" height="206" rx="10" transform="rotate(11.1132 133.131 0)" fill="white"/>
<rect x="139.438" y="9.39197" width="170" height="190" rx="10" transform="rotate(11.1132 139.438 9.39197)" fill="#A9A9A9"/>
<rect x="145.151" y="16.6288" width="157" height="156" rx="10" transform="rotate(11.1132 145.151 16.6288)" fill="white"/>
<path d="M123.816 156.369C123.866 156.116 124.011 155.893 124.221 155.744L156.906 132.693C157.31 132.408 157.862 132.461 158.204 132.817L181.264 156.842C181.541 157.129 181.961 157.225 182.335 157.086L276.803 121.914C277.536 121.641 278.284 122.276 278.133 123.043L266.174 183.924L264.6 191.94C264.493 192.482 263.968 192.835 263.426 192.728L123.107 165.165C122.565 165.059 122.212 164.533 122.319 163.991L123.816 156.369Z" fill="#D9D9D9"/>
<path d="M76.6069 242.909V272H71.2944L58.6381 253.69H58.4251V272H52.2745V242.909H57.6722L70.229 261.205H70.4847V242.909H76.6069ZM108.422 257.455C108.422 260.627 107.82 263.326 106.618 265.551C105.424 267.777 103.796 269.476 101.731 270.651C99.6763 271.815 97.3656 272.398 94.7994 272.398C92.2141 272.398 89.8941 271.811 87.8391 270.636C85.7842 269.462 84.1602 267.762 82.967 265.537C81.7738 263.312 81.1772 260.617 81.1772 257.455C81.1772 254.282 81.7738 251.583 82.967 249.358C84.1602 247.133 85.7842 245.437 87.8391 244.273C89.8941 243.098 92.2141 242.511 94.7994 242.511C97.3656 242.511 99.6763 243.098 101.731 244.273C103.796 245.437 105.424 247.133 106.618 249.358C107.82 251.583 108.422 254.282 108.422 257.455ZM102.186 257.455C102.186 255.4 101.878 253.667 101.262 252.256C100.656 250.845 99.7994 249.775 98.6914 249.045C97.5835 248.316 96.2861 247.952 94.7994 247.952C93.3126 247.952 92.0153 248.316 90.9073 249.045C89.7994 249.775 88.9376 250.845 88.3221 252.256C87.716 253.667 87.413 255.4 87.413 257.455C87.413 259.509 87.716 261.242 88.3221 262.653C88.9376 264.064 89.7994 265.134 90.9073 265.864C92.0153 266.593 93.3126 266.957 94.7994 266.957C96.2861 266.957 97.5835 266.593 98.6914 265.864C99.7994 265.134 100.656 264.064 101.262 262.653C101.878 261.242 102.186 259.509 102.186 257.455ZM128.386 242.909V272H122.235V242.909H128.386ZM133.446 242.909H141.032L149.043 262.455H149.384L157.395 242.909H164.98V272H159.015V253.065H158.773L151.245 271.858H147.182L139.654 252.994H139.412V272H133.446V242.909ZM175.062 272H168.471L178.514 242.909H186.44L196.468 272H189.877L182.591 249.557H182.363L175.062 272ZM174.65 260.565H190.218V265.366H174.65V260.565ZM217.892 252.312C217.694 251.621 217.414 251.01 217.054 250.48C216.694 249.94 216.254 249.486 215.733 249.116C215.222 248.738 214.635 248.449 213.972 248.25C213.319 248.051 212.594 247.952 211.799 247.952C210.312 247.952 209.005 248.321 207.878 249.06C206.761 249.798 205.89 250.873 205.265 252.284C204.64 253.686 204.327 255.4 204.327 257.426C204.327 259.453 204.635 261.176 205.25 262.597C205.866 264.017 206.737 265.101 207.864 265.849C208.991 266.588 210.321 266.957 211.855 266.957C213.248 266.957 214.436 266.711 215.421 266.219C216.415 265.717 217.173 265.011 217.694 264.102C218.224 263.193 218.489 262.118 218.489 260.878L219.739 261.062H212.239V256.432H224.412V260.097C224.412 262.653 223.873 264.85 222.793 266.688C221.713 268.515 220.227 269.926 218.333 270.92C216.439 271.905 214.27 272.398 211.827 272.398C209.1 272.398 206.704 271.796 204.64 270.594C202.575 269.382 200.965 267.663 199.81 265.438C198.664 263.203 198.091 260.551 198.091 257.483C198.091 255.125 198.432 253.023 199.114 251.176C199.805 249.32 200.771 247.748 202.012 246.46C203.252 245.172 204.696 244.192 206.344 243.52C207.992 242.848 209.777 242.511 211.699 242.511C213.347 242.511 214.881 242.753 216.301 243.236C217.722 243.709 218.981 244.382 220.08 245.253C221.188 246.124 222.092 247.161 222.793 248.364C223.494 249.557 223.944 250.873 224.142 252.312H217.892ZM229.032 272V242.909H248.635V247.98H235.183V254.912H247.626V259.983H235.183V266.929H248.691V272H229.032ZM52.3082 320H45.7173L55.7599 290.909H63.6861L73.7145 320H67.1236L59.8366 297.557H59.6094L52.3082 320ZM51.8963 308.565H67.4645V313.366H51.8963V308.565ZM78.8388 290.909L85.87 313.011H86.1399L93.1854 290.909H100.004L89.9751 320H82.049L72.0064 290.909H78.8388ZM104.652 320H98.0611L108.104 290.909H116.03L126.058 320H119.467L112.18 297.557H111.953L104.652 320ZM104.24 308.565H119.808V313.366H104.24V308.565ZM135.71 290.909V320H129.56V290.909H135.71ZM140.771 320V290.909H146.921V314.929H159.393V320H140.771ZM169.222 320H162.631L172.674 290.909H180.6L190.629 320H184.038L176.751 297.557H176.523L169.222 320ZM168.81 308.565H184.379V313.366H168.81V308.565ZM194.13 320V290.909H205.778C207.918 290.909 209.703 291.226 211.133 291.861C212.563 292.495 213.638 293.376 214.357 294.503C215.077 295.62 215.437 296.908 215.437 298.366C215.437 299.503 215.21 300.502 214.755 301.364C214.3 302.216 213.675 302.917 212.88 303.466C212.094 304.006 211.194 304.389 210.181 304.616V304.901C211.289 304.948 212.326 305.26 213.292 305.838C214.267 306.416 215.058 307.225 215.664 308.267C216.27 309.299 216.573 310.53 216.573 311.96C216.573 313.504 216.19 314.882 215.423 316.094C214.665 317.296 213.543 318.248 212.056 318.949C210.569 319.65 208.737 320 206.559 320H194.13ZM200.281 314.972H205.295C207.009 314.972 208.259 314.645 209.045 313.991C209.831 313.329 210.224 312.448 210.224 311.349C210.224 310.545 210.03 309.834 209.641 309.219C209.253 308.603 208.699 308.12 207.979 307.77C207.269 307.42 206.422 307.244 205.437 307.244H200.281V314.972ZM200.281 303.082H204.84C205.683 303.082 206.431 302.936 207.085 302.642C207.747 302.339 208.268 301.913 208.647 301.364C209.035 300.814 209.229 300.156 209.229 299.389C209.229 298.338 208.855 297.491 208.107 296.847C207.369 296.203 206.317 295.881 204.954 295.881H200.281V303.082ZM220.575 320V290.909H226.726V314.929H239.197V320H220.575ZM243.271 320V290.909H262.873V295.98H249.421V302.912H261.864V307.983H249.421V314.929H262.93V320H243.271Z" fill="#B0B0B0"/>
</svg>
